<svg width="57" height="57" viewBox="0 0 57 57" fill="none" xmlns="http://www.w3.org/2000/svg">
<path d="M0 0H57V57H0V0ZM52.3307 43.4055C51.9151 40.8049 50.2218 38.6199 45.1986 36.5821C43.4506 35.7627 41.5079 35.1927 40.9307 33.8746C40.7146 33.0909 40.6814 32.6634 40.8215 32.2002C41.1777 30.666 42.9946 30.2052 44.4196 30.6327C45.3459 30.9177 46.2009 31.6303 46.7376 32.7703C49.1934 31.1648 49.1934 31.1648 50.9058 30.0984C50.2645 29.1009 49.9462 28.671 49.514 28.2459C48.0177 26.5715 46.0251 25.7165 42.7832 25.7901L41.1089 26.0015C39.5034 26.3934 37.9739 27.2484 37.0476 28.3884C34.3401 31.4545 35.1215 36.7982 38.399 39.007C41.6409 41.4295 46.3814 41.9615 46.987 44.2439C47.557 47.0226 44.9208 47.9132 42.3178 47.5926C40.3916 47.1651 39.3252 46.2009 38.1496 44.4196L33.8034 46.9157C34.3021 48.0557 34.8721 48.5521 35.7271 49.5496C39.8596 53.7201 50.1909 53.5064 52.0457 47.1651C52.1146 46.9514 52.6158 45.4907 52.2215 43.2464L52.3307 43.4055ZM30.9961 26.1986H25.6571C25.6571 30.8014 25.6357 35.3756 25.6357 39.9855C25.6357 42.9115 25.7854 45.5976 25.308 46.4241C24.5243 48.0605 22.5055 47.8515 21.5888 47.5641C20.6483 47.0986 20.1709 46.4574 19.6175 45.5335C19.4679 45.2841 19.3563 45.068 19.3159 45.068L14.9815 47.7399C15.7059 49.2361 16.7628 50.5234 18.126 51.3428C20.1566 52.554 22.8855 52.9459 25.7426 52.3046C27.6022 51.7679 29.2054 50.6635 30.0437 48.9535C31.255 46.7447 30.9985 44.0373 30.9866 41.0068C31.0151 36.1285 30.9866 31.2479 30.9866 26.3316L30.9961 26.1986Z" fill="#F7DF1E"/>
</svg>
