<svg width="73" height="65" viewBox="0 0 73 65" fill="none" xmlns="http://www.w3.org/2000/svg">
<path d="M43.2829 32.5076C43.2829 34.3104 42.5668 36.0395 41.292 37.3145C40.0172 38.5896 38.288 39.3063 36.4848 39.3071C34.681 39.3071 32.9511 38.5908 31.6756 37.3156C30.4002 36.0404 29.6836 34.311 29.6836 32.5076C29.6836 30.7048 30.3998 28.9758 31.6746 27.7007C32.9494 26.4256 34.6785 25.7089 36.4818 25.7081C38.2855 25.7081 40.0154 26.4244 41.2909 27.6996C42.5664 28.9748 43.2829 30.7043 43.2829 32.5076ZM51.3373 0C47.2432 0 41.8868 2.9193 36.4696 7.97333C31.0554 2.94667 25.696 0.0608187 21.605 0.0608187C20.3579 0.0608187 19.2233 0.343626 18.2409 0.906199C14.0586 3.31766 13.1218 10.8318 15.2813 20.2618C6.0225 23.1202 0 27.6908 0 32.5076C0 37.3427 6.05292 41.9254 15.3391 44.7626C13.1978 54.229 14.1529 61.7553 18.3443 64.1637C19.3176 64.7324 20.443 65 21.6962 65C25.7873 65 31.1467 62.0807 36.5639 57.0206C41.978 62.0503 47.3375 64.9361 51.4285 64.9361C52.6756 64.9361 53.8101 64.6625 54.7926 64.0999C58.9718 61.6915 59.9117 54.1773 57.7521 44.7443C66.9775 41.9102 73 37.3305 73 32.5076C73 27.6725 66.9471 23.0898 57.6609 20.2465C59.8022 10.7892 58.8471 3.25684 54.6557 0.84538C53.6885 0.285848 52.5661 0.00304094 51.3373 0ZM51.322 3.31462V3.33287C52.0064 3.33287 52.557 3.46667 53.0193 3.71906C55.045 4.8807 55.9241 9.29918 55.2397 14.9827C55.0755 16.3815 54.8078 17.8564 54.4793 19.3616C51.5593 18.644 48.3777 18.0936 45.0288 17.7378C43.0213 14.9857 40.9378 12.4861 38.839 10.2966C43.6814 5.79602 48.2287 3.32678 51.3251 3.31766L51.322 3.31462ZM21.605 3.37544C24.6831 3.37544 29.2517 5.83251 34.1062 10.3088C32.0196 12.4982 29.9391 14.9827 27.962 17.7347C24.5949 18.0905 21.4103 18.6409 18.4933 19.3708C18.1527 17.8807 17.9002 16.4393 17.7208 15.0526C17.0212 9.37216 17.885 4.95673 19.8925 3.77988C20.4704 3.5062 21.1092 3.39064 21.605 3.37544ZM36.4544 12.6503C37.8383 14.0735 39.2223 15.6669 40.591 17.4063C39.2527 17.3455 37.884 17.3029 36.5 17.3029C35.1008 17.3029 33.7169 17.3333 32.3633 17.4063C33.7017 15.6669 35.0856 14.0765 36.4544 12.6503ZM36.5 20.6358C38.7508 20.6358 40.9925 20.7392 43.1978 20.9186C44.4327 22.6884 45.6372 24.5768 46.796 26.5747C47.9275 28.5209 48.9556 30.4975 49.8925 32.4924C48.9556 34.4842 47.9275 36.476 46.8113 38.4222C45.6554 40.4292 44.46 42.3389 43.2221 44.1088C41.0078 44.3004 38.763 44.4068 36.5 44.4068C34.2492 44.4068 32.0075 44.3004 29.8023 44.124C28.5673 42.3542 27.3628 40.4627 26.204 38.4678C25.0725 36.5216 24.0444 34.545 23.1075 32.5502C24.0292 30.5523 25.0725 28.5574 26.1887 26.6082C27.3446 24.6012 28.54 22.6975 29.7779 20.9277C31.9923 20.7331 34.237 20.6297 36.5 20.6297V20.6358ZM25.4435 21.4082C24.7135 22.5546 23.9835 23.7284 23.3022 24.9357C22.6178 26.1216 21.9791 27.3137 21.3708 28.5057C20.5647 26.5109 19.8803 24.5221 19.3146 22.585C21.2612 22.1289 23.3144 21.7214 25.4435 21.4082ZM47.526 21.4082C49.64 21.7214 51.6779 22.1076 53.6276 22.585C53.0801 24.5069 52.3958 26.4835 51.6201 28.4632C51.0118 27.2772 50.373 26.0821 49.6735 24.8931C48.9891 23.7011 48.2591 22.5394 47.5291 21.4082H47.526ZM56.8427 23.4608C58.3148 23.917 59.714 24.4248 61.025 24.9752C66.2931 27.2255 69.6998 30.1691 69.6998 32.5046C69.6846 34.84 66.2779 37.7958 61.0098 40.0309C59.7323 40.5782 58.3331 41.0709 56.8883 41.5301C56.0366 38.6168 54.9234 35.582 53.5425 32.4681C54.9112 29.3754 56.0062 26.3558 56.8427 23.4547V23.4608ZM16.0995 23.473C16.9451 26.3923 18.0614 29.4241 19.4454 32.535C18.0766 35.6276 16.9755 38.6473 16.1421 41.5483C14.67 41.0922 13.2708 40.5813 11.975 40.0278C6.70688 37.7867 3.30021 34.84 3.30021 32.5046C3.30021 30.1691 6.70688 27.2073 11.975 24.9752C13.2525 24.4278 14.6517 23.9352 16.0995 23.473ZM51.6201 36.4882C52.4262 38.4861 53.1105 40.4779 53.6763 42.4119C51.7296 42.8894 49.6735 43.2938 47.5443 43.5979C48.2743 42.4575 49.0043 41.2807 49.6887 40.0765C50.373 38.8905 51.0088 37.6802 51.6201 36.4882ZM21.3708 36.549C21.9791 37.7411 22.6178 38.9301 23.3174 40.1221C24.017 41.3081 24.7318 42.4697 25.4618 43.5979C23.3478 43.2877 21.3099 42.8985 19.3602 42.4241C19.9077 40.5083 20.5951 38.5256 21.3677 36.546L21.3708 36.549ZM54.5067 45.6323C54.8473 47.1315 55.115 48.5759 55.2793 49.9595C55.9788 55.64 55.115 60.0554 53.1075 61.2353C52.6604 61.509 52.0794 61.6246 51.395 61.6246C48.3169 61.6246 43.7483 59.1705 38.8938 54.6912C40.9804 52.5018 43.0609 50.0204 45.038 47.2713C48.4051 46.9125 51.5897 46.3621 54.5067 45.6323ZM18.5238 45.6627C21.4438 46.3743 24.6253 46.9247 27.9742 47.2805C29.9817 50.0325 32.0653 52.5322 34.164 54.7186C29.3125 59.2283 24.7592 61.6976 21.6628 61.6976C20.9936 61.6823 20.4278 61.5455 19.9807 61.2961C17.955 60.1406 17.0759 55.7191 17.7603 50.0356C17.9245 48.6367 18.1953 47.1649 18.5238 45.6627ZM32.3937 47.6089C33.7321 47.6697 35.1008 47.7123 36.4848 47.7123C37.884 47.7123 39.2679 47.6819 40.6215 47.6089C39.2831 49.3483 37.8992 50.9387 36.5304 52.368C35.1465 50.9387 33.7625 49.3483 32.3937 47.6089Z" fill="#61DAFB"/>
</svg>
