<svg width="28" height="21" viewBox="0 0 28 21" fill="none" xmlns="http://www.w3.org/2000/svg">
<path d="M28 2.86857V19.0908C28 20.1451 27.146 20.9988 26.0913 20.9988H21.6358V10.1848L14 15.9114L6.36417 10.1848V21H1.90867C1.65792 21 1.40963 20.9506 1.17798 20.8546C0.946336 20.7587 0.735875 20.618 0.558623 20.4407C0.381372 20.2634 0.240805 20.0529 0.144954 19.8213C0.0491031 19.5897 -0.000152912 19.3414 3.56593e-07 19.0908V2.86857C3.56593e-07 0.50913 2.69383 -0.837956 4.5815 0.577942L6.36417 1.9157L14 7.63994L21.6358 1.91336L23.4185 0.577942C25.305 -0.83679 28 0.50913 28 2.86857Z" fill="black"/>
</svg>
