<svg width="51" height="51" viewBox="0 0 51 51" xmlns="http://www.w3.org/2000/svg">
<path d="M51 25.5C51 11.4167 39.5833 0 25.5 0C11.4167 0 0 11.4167 0 25.5C0 39.5833 11.4167 51 25.5 51C39.5833 51 51 39.5833 51 25.5Z" />
<path fill-rule="evenodd" clip-rule="evenodd" d="M25.461 13.056C18.4427 13.056 12.75 18.7487 12.75 25.767C12.75 31.3817 16.4151 36.1386 21.406 37.8542C22.0298 37.9322 22.2638 37.5423 22.2638 37.2303C22.2638 36.9184 22.2638 36.1386 22.2638 35.0469C18.7546 35.8267 17.9748 33.3313 17.9748 33.3313C17.4289 31.8496 16.5711 31.4597 16.5711 31.4597C15.4014 30.6799 16.6491 30.6799 16.6491 30.6799C17.8968 30.7579 18.5986 32.0056 18.5986 32.0056C19.7683 33.9551 21.5619 33.4092 22.2638 33.0973C22.3417 32.2395 22.7317 31.6936 23.0436 31.3817C20.2362 31.0698 17.2729 29.9781 17.2729 25.0652C17.2729 23.6615 17.7408 22.5698 18.5986 21.634C18.5206 21.4001 18.0528 20.0744 18.7546 18.3588C18.7546 18.3588 19.8463 18.0469 22.2638 19.6845C23.2775 19.3725 24.3693 19.2946 25.461 19.2946C26.5528 19.2946 27.6445 19.4505 28.6583 19.6845C31.0757 18.0469 32.1674 18.3588 32.1674 18.3588C32.8693 20.0744 32.4014 21.4001 32.3234 21.712C33.1032 22.5698 33.6491 23.7395 33.6491 25.1432C33.6491 30.056 30.6858 31.0698 27.8784 31.3817C28.3463 31.7716 28.7362 32.5514 28.7362 33.7212C28.7362 35.4368 28.7362 36.7625 28.7362 37.2303C28.7362 37.5423 28.9702 37.9322 29.594 37.8542C34.6628 36.1386 38.25 31.3817 38.25 25.767C38.172 18.7487 32.4794 13.056 25.461 13.056Z" fill="black"/>
</svg>
