<svg width="51" height="51" viewBox="0 0 51 51" xmlns="http://www.w3.org/2000/svg">
<rect width="51" height="51" rx="25.5" />
<path d="M35.7 26.4491V33.4816H31.5834V26.8779C31.5834 25.2484 30.9831 24.1335 29.5251 24.1335C28.4102 24.1335 27.7241 24.9054 27.4668 25.5915C27.3811 25.8488 27.2953 26.1918 27.2953 26.6206V33.4816H23.1787C23.1787 33.4816 23.2645 22.3325 23.1787 21.2176H27.2953V22.9328C27.8099 22.0752 28.839 20.8745 30.9831 20.8745C33.6417 20.8745 35.7 22.6756 35.7 26.4491ZM18.8906 15.3C17.5184 15.3 16.575 16.2434 16.575 17.444C16.575 18.6447 17.4326 19.5881 18.8048 19.5881C20.2628 19.5881 21.1204 18.6447 21.1204 17.444C21.2062 16.1576 20.3486 15.3 18.8906 15.3ZM16.8323 33.4816H20.9489V21.2176H16.8323V33.4816Z" fill="black"/>
</svg>
